<svg xmlns="http://www.w3.org/2000/svg" width="149" height="74" fill="none"><g fill="#fff" clip-path="url(#a)"><path d="m21.834 67.34-1.18 2.368H6.639l.59-1.184 3.54-6.66h15.49l1.623-3.256c.295-.444-.147-1.036-.59-1.036H9.442c-.59 0-1.033.296-1.328.888L2.065 70.152.59 73.112c-.295.444 0 .888.59.888h20.654c.59 0 1.032-.296 1.327-.74l.148-.296.738-1.332.885-1.776 1.18-2.516s.147-.148.147-.296l1.18-2.22c.296-.444-.147-.888-.59-.888H15.49c-.295 0-.738.148-.885.592l-1.623 3.108h8.852v-.296ZM138.673 67.34l-1.18 2.368h-14.015l.59-1.184 3.541-6.66h15.49l1.623-3.256c.295-.444-.148-1.036-.59-1.036h-17.851c-.59 0-1.032.296-1.328.888l-6.048 11.692-1.475 2.96c-.295.444 0 .888.59.888h20.653c.59 0 1.033-.296 1.328-.74l.148-.296.737-1.332.885-1.776 1.18-2.516s.148-.148.148-.296l1.18-2.22c.295-.444-.147-.888-.59-.888H132.33c-.295 0-.738.148-.885.592l-1.623 3.108h8.851v-.296ZM51.781 74h-5.606l-.737-3.404H33.93L29.948 74h-4.279c-.442 0-.737-.592-.295-.888l17.408-14.948c.443-.444 1.18-.592 1.77-.592h3.984L51.78 74ZM44.7 67.192l-.885-5.032-5.901 5.18 6.786-.148ZM87.04 58.608 79.663 74H75.09l3.836-8.14L68.156 74h-.885l-4.868-9.768L57.683 74H52.96l7.524-15.54c.295-.592.738-.888 1.475-.888h2.656c.59 0 1.032.296 1.328.74l4.573 9.028 12.097-9.916h3.983c.443.148.738.74.443 1.184ZM93.973 58.46 86.45 74h-4.721l7.966-16.428h3.836c.442 0 .737.444.442.888ZM122.15 58.608 114.037 74h-4.131l-10.77-10.508L93.974 74H89.4l7.524-15.688a1.11 1.11 0 0 1 1.032-.74h3.393l10.77 10.508 5.753-10.508h3.541c.59.148.885.592.737 1.036ZM17.555 33.892l2.803-5.476h41.897c1.476 0 2.508-1.184 3.246-2.516l11.95-22.94C78.188 1.628 77.154 0 75.68 0H25.226c-1.476 0-2.803 1.036-3.54 2.368l-6.64 12.728h12.098l1.77-3.256H60.78l-2.803 5.476H16.08c-1.623 0-2.655.888-3.393 2.368L.59 42.92c-.738 1.332.295 2.664 1.77 2.664h62.993c1.476 0 2.951-.888 3.541-2.22l4.868-9.62H17.555v.148ZM143.689 11.84l4.573-8.88C149 1.628 147.967 0 146.492 0H96.186c-1.475 0-2.803 1.036-3.54 2.368L71.548 42.92c-.737 1.332.296 2.664 1.77 2.664h62.994c1.475 0 2.95-.888 3.54-2.22l4.869-9.62H88.367l2.803-5.476h41.897c1.476 0 2.508-1.184 3.246-2.516l4.573-8.732H96.924l2.803-5.18h43.962Z"/></g><defs><clipPath id="a"><path fill="#fff" d="M0 0h149v74H0z"/></clipPath></defs></svg>