<svg width="34" height="34" viewBox="0 0 34 34" fill="none" xmlns="http://www.w3.org/2000/svg">
<g id="ep:arrow-up-bold">
<path id="Vector" d="M3.47648 22.7525C3.87498 23.1509 4.41538 23.3747 4.97885 23.3747C5.54233 23.3747 6.08273 23.1509 6.48123 22.7525L17 12.2338L27.5187 22.7525C27.9195 23.1396 28.4563 23.3538 29.0135 23.349C29.5706 23.3441 30.1036 23.1206 30.4976 22.7267C30.8916 22.3327 31.1151 21.7997 31.1199 21.2425C31.1248 20.6853 30.9106 20.1486 30.5235 19.7478L18.5024 7.72666C18.1039 7.32829 17.5635 7.10449 17 7.10449C16.4365 7.10449 15.8961 7.32829 15.4976 7.72666L3.47648 19.7478C3.0781 20.1463 2.85431 20.6867 2.85431 21.2502C2.85431 21.8136 3.0781 22.354 3.47648 22.7525Z" fill="#FF0000"/>
</g>
</svg>
