<svg width="371" height="66" viewBox="0 0 371 66" fill="none" xmlns="http://www.w3.org/2000/svg">
<g clip-path="url(#clip0_3_233)">
<path d="M13.6868 53.207H14.5604V59.8943L20.3846 53.207H21.5495L17.7637 57.859L22.1319 65.4185H20.967L16.8901 58.4405L14.5604 61.0573V65.1277H13.6868V53.207Z" fill="white"/>
<path d="M39.022 53.207H45.7198V54.0793H39.8956V58.4405H44.8462V59.3128H39.8956V64.5462H45.7198V65.4185H38.7308V53.207H39.022Z" fill="white"/>
<path d="M65.2308 60.4758L61.4451 53.207H62.6099L64.3571 56.9868C64.6484 57.859 65.2308 58.7313 65.522 59.6035C66.0301 58.7895 66.4222 57.9088 66.6868 56.9868L68.4341 53.207H69.5989L66.1044 60.4758V65.4185H65.2308V60.4758Z" fill="white"/>
<path d="M86.489 53.207H89.9835C92.3132 53.207 94.0604 54.0793 94.0604 56.1145C94.1078 56.6836 93.9609 57.2518 93.6436 57.7269C93.3264 58.202 92.8575 58.556 92.3132 58.7313C93.034 58.8036 93.7019 59.1416 94.1866 59.6792C94.6712 60.2168 94.9377 60.9155 94.9341 61.6388C94.9341 63.9647 93.1868 65.1277 90.2747 65.1277H86.489V53.207ZM89.4011 58.4405C91.7308 58.4405 92.8956 57.5683 92.8956 56.1145C92.8956 54.6608 91.7308 53.7885 89.6923 53.7885H87.6539V58.1498H89.4011V58.4405ZM89.6923 64.5462C92.022 64.5462 93.478 63.674 93.478 61.9295C93.478 60.185 92.022 59.3128 89.6923 59.3128H87.3626V64.5462H89.6923Z" fill="white"/>
<path d="M111.242 59.0217C111.242 55.242 113.28 52.916 116.192 52.916C119.104 52.916 121.143 55.242 121.143 59.0217C121.143 62.8015 119.104 65.4182 116.192 65.4182C113.28 65.4182 111.242 63.0922 111.242 59.0217ZM120.269 59.0217C120.269 55.8235 118.813 53.7883 116.192 53.7883C113.571 53.7883 112.115 55.8235 112.115 59.0217C112.115 62.22 113.571 64.546 116.192 64.546C118.813 64.546 120.269 62.5107 120.269 59.0217Z" fill="white"/>
<path d="M144.148 61.057H139.489L138.033 65.1275H137.159L141.527 52.916H142.692L147.06 65.1275H145.896L144.148 61.057ZM143.857 60.4755L142.984 58.1495C142.401 56.6957 142.11 55.5327 141.527 54.079C141.172 55.4788 140.685 56.8418 140.071 58.1495L139.198 60.4755H143.857Z" fill="white"/>
<path d="M170.066 65.1277L166.863 59.6035H164.242V65.1277H163.368V53.207H166.863C169.192 53.207 170.94 54.0793 170.94 56.4053C170.98 56.8108 170.935 57.2204 170.807 57.6074C170.679 57.9944 170.471 58.3503 170.197 58.6518C169.922 58.9534 169.587 59.194 169.213 59.3579C168.84 59.5219 168.436 59.6056 168.027 59.6035L171.231 65.1277H170.066ZM164.242 59.022H166.571C168.61 59.022 169.775 58.1498 169.775 56.4053C169.775 54.6608 168.61 54.0793 166.571 54.0793H164.242V59.022Z" fill="white"/>
<path d="M188.121 53.207H191.033C194.819 53.207 196.566 55.533 196.566 59.3128C196.566 63.0925 194.819 65.4185 191.033 65.4185H188.121V53.207ZM191.033 64.5462C194.236 64.5462 195.692 62.511 195.692 59.3128C195.692 56.1145 194.236 54.0793 191.033 54.0793H189.286V64.5462H191.033Z" fill="white"/>
<path d="M238.209 61.057H233.549L232.093 65.1275H231.22L235.588 52.916H236.753L241.121 65.1275H239.956L238.209 61.057ZM237.918 60.4755L237.044 58.1495C236.462 56.6957 236.17 55.5327 235.588 54.079C235.233 55.4788 234.745 56.8418 234.132 58.1495L233.258 60.4755H237.918Z" fill="white"/>
<path d="M263.835 65.1277L260.632 59.6035H258.302V65.1277H257.429V53.207H260.923C263.253 53.207 265 54.0793 265 56.4053C265.041 56.8108 264.996 57.2204 264.868 57.6074C264.74 57.9944 264.532 58.3503 264.257 58.6518C263.983 58.9534 263.648 59.194 263.274 59.3579C262.9 59.5219 262.496 59.6056 262.088 59.6035L265.291 65.1277H263.835ZM258.302 59.022H260.632C262.67 59.022 263.835 58.1498 263.835 56.4053C263.835 54.6608 262.67 54.0793 260.632 54.0793H258.302V59.022Z" fill="white"/>
<path d="M284.511 54.0793H280.725V53.207H289.462V54.0793H285.676V65.4185H284.511V54.0793Z" fill="white"/>
<path d="M306.352 53.207H307.225V65.4185H306.352V53.207Z" fill="white"/>
<path d="M324.698 63.6744L325.28 63.0929C325.718 63.6001 326.252 64.0155 326.852 64.3149C327.452 64.6144 328.106 64.792 328.775 64.8374C330.522 64.8374 331.687 63.9652 331.687 62.5114C331.712 61.9364 331.514 61.374 331.134 60.9409C330.754 60.5077 330.222 60.2372 329.648 60.1854L327.901 59.3132C326.736 58.7317 325.571 58.1502 325.571 56.4057C325.571 54.6612 327.027 53.4982 329.066 53.4982C329.716 53.4933 330.361 53.6195 330.962 53.8693C331.562 54.1191 332.106 54.4873 332.56 54.9519L331.978 55.5334C331.623 55.1189 331.173 54.7966 330.665 54.594C330.158 54.3915 329.609 54.3148 329.066 54.3704C328.449 54.2963 327.827 54.4685 327.336 54.8497C326.845 55.2308 326.525 55.79 326.445 56.4057C326.475 56.9654 326.692 57.499 327.061 57.9208C327.431 58.3426 327.932 58.6282 328.483 58.7317L330.231 59.6039C330.959 59.7759 331.61 60.1822 332.083 60.7602C332.557 61.3382 332.827 62.0557 332.852 62.8022C332.852 64.5466 331.396 66.0004 328.775 66.0004C327.269 65.5155 325.881 64.7234 324.698 63.6744Z" fill="white"/>
<path d="M352.363 54.0793H348.577V53.207H357.313V54.0793H353.527V65.4185H352.654V54.0793H352.363Z" fill="white"/>
<path d="M362.264 44.7754H8.44505V45.9384H362.264V44.7754Z" fill="white"/>
<path d="M14.2692 0.873047H0L16.5989 33.1462C16.5989 33.1462 19.2198 38.9611 24.1703 38.9611C29.1209 38.9611 34.9451 32.2739 34.9451 32.2739L62.6099 0.873047H48.3407L36.4011 15.1197L27.0824 25.5867L14.2692 0.873047Z" fill="white"/>
<path d="M59.1154 38.3791H44.8462L74.8407 4.943C74.8407 4.943 79.2088 0.291016 83.5769 0.291016C84.9673 0.408904 86.3068 0.868943 87.4756 1.63C88.6444 2.39106 89.6061 3.42941 90.2747 4.65225L107.747 38.3791H63.7747L72.2198 28.7844H88.2363L80.956 13.6655L59.1154 38.3791Z" fill="white"/>
<path d="M167.445 38.3779H151.429L144.731 28.2017H127.258L125.22 38.6687H113.571L117.357 19.1885H152.593C152.593 19.1885 157.253 18.607 157.253 14.5365C157.253 10.466 152.593 10.7568 152.593 10.7568H118.813L127.841 1.16207H153.176C153.176 1.16207 169.484 0.289824 169.484 12.5013C169.548 15.8375 168.406 19.0851 166.267 21.6485C164.127 24.2119 161.134 25.9192 157.835 26.4572L167.445 38.3779Z" fill="white"/>
<path d="M240.247 38.3786H228.016L226.56 15.1187L212.874 34.5989C212.132 35.8839 211.074 36.9587 209.8 37.7219C208.526 38.485 207.078 38.9112 205.593 38.9601C204.175 38.9395 202.798 38.4813 201.651 37.6485C200.504 36.8156 199.643 35.6488 199.187 34.3081L192.489 14.828L182.297 38.0879H170.648L186.956 3.77952C187.693 2.59865 188.725 1.62933 189.95 0.966691C191.175 0.304048 192.552 -0.0291547 193.945 -0.000216749C195.425 0.0987593 196.838 0.656029 197.986 1.59404C199.135 2.53205 199.961 3.80414 200.352 5.23326L207.923 25.2949L223.357 3.77952C224.21 2.64594 225.307 1.7179 226.567 1.06375C227.827 0.409601 229.218 0.0460164 230.637 -0.000216749C235.297 -0.000216749 236.462 2.90727 237.044 8.43149C237.626 13.9557 240.247 38.3786 240.247 38.3786Z" fill="white"/>
<path d="M253.934 0.873047H265.582L259.176 38.3797H246.654L253.352 0.873047H253.934Z" fill="white"/>
<path d="M311.011 28.7849L301.983 38.3797H268.203L274.901 0.873047H287.132L282.181 28.7849H311.011Z" fill="white"/>
<path d="M348.577 0.290422H347.121C317.709 0.871919 315.67 15.1186 315.67 21.8058V22.6781C315.67 29.0746 317.709 38.6693 340.423 38.6693C368.379 38.6693 371 25.0041 371 19.1891V13.9556C371 -0.291074 348.577 0.290422 348.577 0.290422ZM359.643 19.7706C359.738 20.9956 359.522 22.2249 359.012 23.3435C358.503 24.4621 357.718 25.4336 356.731 26.1671C354.401 28.2023 350.033 29.6561 341.879 29.6561C328.483 29.6561 327.319 25.8763 327.319 21.5151V20.9336C327.271 19.8593 327.369 18.7834 327.61 17.7354C327.901 14.8279 328.483 10.1759 345.082 9.88513H345.956C345.956 9.88513 359.643 9.0129 359.643 16.5724V19.7706Z" fill="white"/>
</g>
<defs>
<clipPath id="clip0_3_233">
<rect width="371" height="66" fill="white"/>
</clipPath>
</defs>
</svg>
